# xmcd CD database file
#
# Track frame offsets:
#	150
#	19903
#	34572
#	47719
#	63833
#	80873
#	94348
#	113598
#	126858
#	141499
#	161798
#	180761
#	195037
#	214851
#	230564
#
# Disc length: 3414 seconds
#
# Revision: 8
# Processed by: cddbd v1.5.2PL0 Copyright (c) Steve Scherf et al.
# Submitted via: CDex 1.51
#
DISCID=c80d540f
DTITLE=Brooks and Dunn - The Essential Brooks and Dunn Disc 2
DYEAR=2012
DGENRE=Country
TTITLE0=Indian Summer
TTITLE1=Play Something Country
TTITLE2=My Next Broken Heart
TTITLE3=Cowgirls Don't Cry Featuring Reba McEntire
TTITLE4=Lost And Found
TTITLE5=Little Miss Honky Tonk
TTITLE6=It's Getting Better All The Time
TTITLE7=We'll Burn That Bridge
TTITLE8=He's Got You
TTITLE9=Only In America
TTITLE10=I Am That Man
TTITLE11=Husbands And Wives
TTITLE12=Neon Moon
TTITLE13=My Maria
TTITLE14=Believe
EXTD=YEAR: 2012
EXTT0=
EXTT1=
EXTT2=
EXTT3=
EXTT4=
EXTT5=
EXTT6=
EXTT7=
EXTT8=
EXTT9=
EXTT10=
EXTT11=
EXTT12=
EXTT13=
EXTT14=
PLAYORDER=
